# Blender v2.79 (sub 0) OBJ File: ''
# www.blender.org
v 1.000000 -1.000000 1.000000
v -1.000000 -1.000000 -1.000000
v 1.000000 -1.000000 -1.000000
v -1.000000 1.000000 -1.000000
v 0.999999 1.000000 1.000001
v 1.000000 1.000000 -0.999999
v -1.000000 -1.000000 1.000000
v -1.000000 1.000000 1.000000
vt 1.000324 0.333402
vt 0.757425 0.667677
vt 0.756276 0.333316
vt 0.500510 0.667704
vt 0.250275 0.333464
vt 0.500225 0.333412
vt 0.250557 -0.001373
vt 0.499939 -0.001712
vt 0.000377 0.668659
vt 0.000775 0.333516
vt 0.251278 1.001675
vt 0.500327 1.002502
vt 1.000033 0.667638
vt 0.249993 0.667097
vn 0.0000 -1.0000 -0.0000
vn -0.0000 1.0000 0.0000
vn 1.0000 0.0000 0.0000
vn -0.0000 -0.0000 1.0000
vn -1.0000 0.0000 0.0000
vn 0.0000 0.0000 -1.0000
s 1
f 1/1/1 2/2/1 3/3/1
f 4/4/2 5/5/2 6/6/2
f 6/6/3 1/7/3 3/8/3
f 5/5/4 7/9/4 1/10/4
f 7/11/5 4/4/5 2/12/5
f 3/3/6 4/4/6 6/6/6
f 1/1/1 7/13/1 2/2/1
f 4/4/2 8/14/2 5/5/2
f 6/6/3 5/5/3 1/7/3
f 5/5/4 8/14/4 7/9/4
f 7/11/5 8/14/5 4/4/5
f 3/3/6 2/2/6 4/4/6
