# Blender v2.79 (sub 7) OBJ File: ''
# www.blender.org
mtllib translatedYunnyWall7.mtl
o object_1
v 5.928688 1.213721 0.822333
v 1.230518 1.213721 0.250067
v 2.461705 1.213721 0.822333
v 5.928688 1.213721 -0.485703
v -0.000669 1.213721 -0.322198
v -0.000669 1.213721 -0.403951
v -0.000669 1.213721 -0.485703
v 10.626856 1.213721 0.250067
v 11.858044 1.213721 -0.322198
v 11.858044 1.213721 -0.485703
v 11.858044 1.213721 -0.403951
v 9.395670 1.213721 0.822333
v 5.928688 -1.249903 0.822332
v 2.461705 -1.249903 0.822332
v 1.230518 -1.249903 0.250067
v 5.928688 -1.249903 -0.485703
v -0.000669 -1.249903 -0.322199
v -0.000669 -1.249903 -0.403951
v -0.000669 -1.249904 2.457376
v 10.626856 -1.249903 0.250067
v 11.858044 -1.249903 -0.322199
v 11.858044 -1.249903 -0.485703
v 11.858044 -1.249903 -0.403951
v 9.395670 -1.249903 0.822332
v 1.230518 -1.249903 0.250067
v -0.000669 1.213721 -0.322198
v -0.000669 -1.249903 -0.322199
v 1.230518 1.213721 0.250067
v -0.000669 1.213721 -0.322198
v 2.461705 1.213721 0.822333
v 2.461705 -1.249903 0.822332
v 2.461705 1.213721 0.822333
v 5.928688 -1.249903 0.822332
v 5.928688 1.213721 0.822333
v 9.395670 -1.249903 0.822332
v 9.395670 -1.249903 0.822332
v 10.626856 1.213721 0.250067
v 9.395670 1.213721 0.822333
v 11.858044 -0.018091 -0.322199
v 11.858044 1.213721 -0.322198
v 11.858044 -1.249903 -0.322199
v 10.626856 -1.249903 0.250067
v 11.858044 -1.249903 -0.403951
v 11.858044 1.213721 -0.403951
v 11.858044 -0.018091 -0.322199
v 11.858044 1.213721 -0.322198
v 11.858044 -1.249903 -0.322199
v 11.858044 -0.018091 -0.485703
v 11.858044 -1.249903 -0.485703
v 11.858044 1.213721 -0.485703
v 11.858044 -0.018091 -0.485703
v 11.858044 -1.249903 -0.485703
v 5.928688 -1.249903 -0.485703
v 5.928688 1.213721 -0.485703
v 11.858044 1.213721 -0.485703
v -0.000669 -0.018091 -0.485703
v -0.000669 1.213721 -0.485703
v -0.000669 -1.249903 -0.485703
v -0.000669 -0.018091 -0.485703
v -0.000669 -1.249903 -0.485703
v -0.000669 -1.249903 -0.403951
v -0.000669 1.213721 -0.403951
v -0.000669 1.213721 -0.485703
v -0.000669 -0.018091 -0.322199
v -0.000669 1.213721 -0.322198
v -0.000669 -1.249903 -0.322199
v 2.461705 -1.249903 0.822332
v 9.395670 1.213721 0.822333
vt 0.510592 0.548470
vt 0.131547 0.594709
vt 0.230878 0.548470
vt 0.510592 0.654160
vt 0.032215 0.640948
vt 0.032215 0.647554
vt 0.032215 0.654160
vt 0.889636 0.594709
vt 0.988968 0.640948
vt 0.988968 0.654160
vt 0.988968 0.647554
vt 0.790305 0.548470
vt 0.510592 0.137694
vt 0.230878 0.137694
vt 0.131547 0.183934
vt 0.510592 0.243384
vt 0.032215 0.230173
vt 0.032215 0.236779
vt 0.032215 0.243384
vt 0.889636 0.183934
vt 0.988968 0.230173
vt 0.988968 0.243384
vt 0.988968 0.236779
vt 0.790305 0.137694
vt 0.132349 0.093489
vt 0.022648 0.099151
vt 0.022648 0.093489
vt 0.132349 0.104813
vt 0.022648 0.104813
vt 0.242051 0.104813
vt 0.242051 0.093489
vt 0.000000 0.000000
vt 0.009859 0.280134
vt 0.000000 0.280134
vt 0.009859 0.560267
vt 0.022648 0.050340
vt 0.132349 0.061664
vt 0.022648 0.061664
vt 0.242051 0.056002
vt 0.242051 0.061664
vt 0.242051 0.050340
vt 0.132349 0.050340
vt 0.522648 0.006606
vt 0.511324 0.006606
vt 0.516986 0.000000
vt 0.511324 0.000000
vt 0.522648 0.000000
vt 0.516986 0.013211
vt 0.522648 0.013211
vt 0.511324 0.013211
vt 0.016253 0.000000
vt 0.021183 0.000000
vt 0.021183 0.478362
vt 0.011324 0.478362
vt 0.011324 0.000000
vt 0.016253 0.956724
vt 0.011324 0.956724
vt 0.021183 0.956724
vt 0.028310 0.000000
vt 0.033972 0.000000
vt 0.033972 0.006606
vt 0.022648 0.006606
vt 0.022648 0.000000
vt 0.028310 0.013211
vt 0.022648 0.013211
vt 0.033972 0.013211
vt 0.009859 0.000000
vt 0.000000 0.560267
vn 0.0000 1.0000 -0.0000
vn 0.0000 -1.0000 -0.0000
vn 0.0000 0.0000 0.0000
vn -0.4215 -0.0000 0.9068
vn -0.4253 -0.0000 0.9051
vn 0.0000 0.0000 1.0000
vn 0.4215 -0.0000 0.9068
vn 1.0000 0.0000 0.0000
vn 0.0000 0.0000 -1.0000
vn -1.0000 0.0000 0.0000
usemtl None
s 1
f 1/1/1 2/2/1 3/3/1
f 4/4/1 5/5/1 2/2/1
f 5/5/1 4/4/1 6/6/1
f 6/6/1 4/4/1 7/7/1
f 2/2/1 1/1/1 8/8/1
f 4/4/1 2/2/1 8/8/1
f 9/9/1 4/4/1 8/8/1
f 10/10/1 4/4/1 11/11/1
f 9/9/1 11/11/1 4/4/1
f 12/12/1 8/8/1 1/1/1
f 13/13/2 14/14/2 15/15/2
f 16/16/2 15/15/2 17/17/2
f 17/17/2 18/18/3 16/16/2
f 18/18/3 19/19/2 16/16/2
f 15/15/2 20/20/2 13/13/2
f 16/16/2 21/21/2 20/20/2
f 15/15/2 16/16/2 20/20/2
f 22/22/2 23/23/2 16/16/2
f 21/21/2 16/16/2 23/23/2
f 24/24/2 13/13/2 20/20/2
f 25/25/4 26/26/5 27/27/4
f 28/28/4 29/29/6 26/26/5
f 30/30/4 25/25/4 31/31/4
f 26/26/5 25/25/4 28/28/4
f 32/32/6 33/33/6 34/34/6
f 35/35/6 34/34/6 33/33/6
f 36/36/7 37/37/7 38/38/7
f 37/37/7 39/39/7 40/40/7
f 41/41/7 39/39/7 42/42/7
f 43/43/8 44/44/8 45/45/8
f 45/45/8 44/44/8 46/46/8
f 43/43/8 45/45/8 47/47/8
f 48/48/8 43/43/8 49/49/8
f 48/48/8 50/50/8 44/44/8
f 43/43/8 48/48/8 44/44/8
f 51/51/9 52/52/9 53/53/9
f 51/51/9 54/54/9 55/55/9
f 54/54/9 51/51/9 53/53/9
f 53/53/9 56/56/9 54/54/9
f 56/56/9 57/57/9 54/54/9
f 58/58/9 56/56/9 53/53/9
f 59/59/10 60/60/10 61/61/10
f 59/59/10 62/62/10 63/63/10
f 62/62/10 59/59/10 61/61/10
f 61/61/10 64/64/10 62/62/10
f 64/64/10 65/65/10 62/62/10
f 66/66/10 64/64/10 61/61/10
f 30/30/4 28/28/4 25/25/4
f 32/32/6 67/67/6 33/33/6
f 35/35/6 68/68/6 34/34/6
f 36/36/7 42/42/7 37/37/7
f 37/37/7 42/42/7 39/39/7
