# Blender v2.79 (sub 7) OBJ File: ''
# www.blender.org
o object_1
v -0.819912 11.677254 1.394929
v 0.896080 11.677254 1.394929
v 0.896080 11.677254 -1.394923
v -0.819912 11.677254 -1.394923
v 2.556042 11.677254 1.394929
v 2.556042 11.677254 -1.394923
v 2.556042 11.677254 1.394929
v 2.556042 -3.623238 1.394926
v 2.556042 -3.623237 -1.394926
v 2.556042 11.677254 -1.394923
v 2.556042 -3.623238 1.394926
v 0.896080 -3.623238 1.394926
v 0.896080 -3.623237 -1.394926
v 2.556042 -3.623237 -1.394926
v 0.896080 -3.623238 1.394926
v 0.896080 -14.161758 1.394925
v 0.896080 -14.161758 -1.394927
v 0.896080 -3.623237 -1.394926
v 0.896080 -14.161758 1.394925
v -0.819912 -14.161758 1.394925
v -0.819912 -14.161758 -1.394927
v 0.896080 -14.161758 -1.394927
v -0.819912 -14.161758 1.394925
v -0.819912 -3.623238 1.394926
v -0.819912 -3.623237 -1.394926
v -0.819912 -14.161758 -1.394927
v -0.819912 -3.623238 1.394926
v -2.520947 -3.623238 1.394926
v -2.520947 -3.623237 -1.394926
v -0.819912 -3.623237 -1.394926
v -2.520947 -3.623238 1.394926
v -2.520947 11.677254 1.394929
v -2.520947 11.677254 -1.394923
v -2.520947 -3.623237 -1.394926
v -2.520947 11.677254 1.394929
v -0.819912 11.677254 1.394929
v -0.819912 11.677254 -1.394923
v -2.520947 11.677254 -1.394923
v 0.896080 11.677254 1.394929
v 0.896080 -3.623238 1.394926
v 2.556042 11.677254 1.394929
v 2.556042 -3.623238 1.394926
v -0.819912 -3.623238 1.394926
v 0.896080 -14.161758 1.394925
v -0.819912 -14.161758 1.394925
v -2.520947 11.677254 1.394929
v -2.520947 -3.623238 1.394926
v -0.819912 11.677254 1.394929
v 0.896080 11.677254 -1.394923
v 2.556042 11.677254 -1.394923
v 0.896080 -3.623237 -1.394926
v 2.556042 -3.623237 -1.394926
v -0.819912 -3.623237 -1.394926
v 0.896080 -14.161758 -1.394927
v -0.819912 -14.161758 -1.394927
v -2.520947 11.677254 -1.394923
v -0.819912 11.677254 -1.394923
v -2.520947 -3.623237 -1.394926
vt 0.111997 0.000000
vt 0.000000 0.525610
vt 0.000000 0.000000
vt 0.220337 0.000000
vt 0.111997 0.525610
vt 0.320198 0.000000
vt 0.220337 0.525610
vt 0.220337 0.000000
vt 0.428538 0.000000
vt 0.320198 0.525610
vt 0.320198 0.000000
vt 0.497319 0.000000
vt 0.428538 0.525610
vt 0.428538 0.000000
vt 0.609316 0.000000
vt 0.497319 0.525610
vt 0.497319 0.000000
vt 0.678097 0.000000
vt 0.609316 0.525610
vt 0.609316 0.000000
vt 0.789118 0.000000
vt 0.678097 0.525610
vt 0.678097 0.000000
vt 0.888979 0.000000
vt 0.789118 0.525610
vt 0.789118 0.000000
vt 1.000000 0.000000
vt 0.888979 0.525610
vt 0.888979 0.000000
vt 0.108340 0.525610
vt 0.108340 0.806519
vt 0.000000 0.525610
vt 0.000000 0.806519
vt 0.220337 0.806519
vt 0.108340 1.000000
vt 0.220337 1.000000
vt 0.331358 0.525610
vt 0.331358 0.806519
vt 0.220337 0.525610
vt 0.108340 1.000000
vt 0.000000 1.000000
vt 0.108340 0.719092
vt 0.000000 0.719092
vt 0.220337 0.719092
vt 0.108340 0.525610
vt 0.220337 0.525610
vt 0.331358 1.000000
vt 0.220337 1.000000
vt 0.331358 0.719092
vt 0.220337 0.525610
vt 0.320198 0.525610
vt 0.428538 0.525610
vt 0.497319 0.525610
vt 0.609316 0.525610
vt 0.678097 0.525610
vt 0.789118 0.525610
vt 0.888979 0.525610
vt 1.000000 0.525610
vn 0.0000 1.0000 0.0000
vn 1.0000 -0.0000 0.0000
vn 0.0000 -1.0000 -0.0000
vn -1.0000 0.0000 0.0000
vn 0.0000 -0.0000 1.0000
vn 0.0000 0.0000 -1.0000
s 1
f 2/1/1 4/2/1 1/3/1
f 5/4/1 3/5/1 2/1/1
f 8/6/2 10/7/2 7/8/2
f 12/9/3 14/10/3 11/11/3
f 16/12/2 18/13/2 15/14/2
f 20/15/3 22/16/3 19/17/3
f 24/18/4 26/19/4 23/20/4
f 28/21/3 30/22/3 27/23/3
f 32/24/4 34/25/4 31/26/4
f 36/27/1 38/28/1 35/29/1
f 39/30/5 40/31/5 41/32/5
f 42/33/5 41/32/5 40/31/5
f 40/31/5 39/30/5 43/34/5
f 43/34/5 44/35/5 40/31/5
f 44/35/5 43/34/5 45/36/5
f 46/37/5 47/38/5 48/39/5
f 43/34/5 48/39/5 47/38/5
f 39/30/5 48/39/5 43/34/5
f 49/40/6 50/41/6 51/42/6
f 52/43/6 51/42/6 50/41/6
f 51/42/6 53/44/6 49/40/6
f 53/44/6 51/42/6 54/45/6
f 54/45/6 55/46/6 53/44/6
f 56/47/6 57/48/6 58/49/6
f 53/44/6 58/49/6 57/48/6
f 49/40/6 53/44/6 57/48/6
f 2/1/1 3/5/1 4/2/1
f 5/4/1 6/50/1 3/5/1
f 8/6/2 9/51/2 10/7/2
f 12/9/3 13/52/3 14/10/3
f 16/12/2 17/53/2 18/13/2
f 20/15/3 21/54/3 22/16/3
f 24/18/4 25/55/4 26/19/4
f 28/21/3 29/56/3 30/22/3
f 32/24/4 33/57/4 34/25/4
f 36/27/1 37/58/1 38/28/1
