# Blender v2.79 (sub 7) OBJ File: ''
# www.blender.org
o object_2
v -0.424999 -0.300003 -0.425000
v -0.424999 -0.300003 -0.425000
v -0.424999 -0.300003 -0.425000
v -0.424999 -0.300003 0.575000
v -0.424999 -0.300003 0.575000
v 0.575001 -0.300003 -0.425000
v 0.575001 -0.300003 0.575000
v 0.575001 -0.300003 -0.425000
v 0.575001 -0.300003 -0.425000
v 0.575001 -0.300003 -0.425000
v 0.575001 -0.300003 -0.425000
v 0.575001 -0.300003 0.575000
v 0.575001 -0.300003 0.575000
v 0.575001 0.699997 -0.425000
v 0.575001 0.699997 0.575000
v 0.575001 0.699997 -0.425000
v -0.424999 0.699997 -0.425000
v -0.424999 0.699997 -0.425000
v -0.424999 -0.300003 -0.425000
v -0.424999 -0.300003 0.575000
v -0.424999 0.699997 0.575000
v -0.424999 -0.300003 -0.425000
v -0.424999 -0.300003 0.575000
v -0.424999 -0.300003 -0.425000
v -0.424999 -0.300003 -0.425000
v -0.424999 -0.300003 -0.425000
v -0.424999 -0.300003 -0.425000
v -0.424999 0.699997 -0.425000
v -0.424999 0.699997 -0.425000
v 0.575001 -0.300003 -0.425000
v 0.575001 0.699997 -0.425000
v 0.575001 -0.300003 -0.425000
v -0.424999 -0.300003 0.575000
v -0.424999 -0.300003 0.575000
v -0.424999 -0.300003 0.575000
v -0.424999 0.699997 0.575000
v -0.424999 0.699997 0.575000
v 0.575001 -0.300003 0.575000
v 0.575001 0.699997 0.575000
v 0.575001 -0.300003 0.575000
vt 0.032143 0.371700
vt 0.032143 0.350575
vt 0.515339 0.350575
vt 0.515339 0.392825
vt 0.032143 0.392825
vt 0.998535 0.371700
vt 0.998535 0.392825
vt 0.998535 0.350575
vt 0.516071 0.021125
vt 0.516071 0.000000
vt 0.532143 0.000000
vt 0.532143 0.042250
vt 0.516071 0.042250
vt 0.548214 0.021125
vt 0.548214 0.042250
vt 0.548214 0.000000
vt 0.032143 0.021125
vt 0.032143 0.000000
vt 0.048214 0.000000
vt 0.048214 0.042250
vt 0.032143 0.042250
vt 0.064285 0.021125
vt 0.064285 0.042250
vt 0.064285 0.000000
vt 0.032143 0.717221
vt 0.515339 0.701149
vt 0.032143 0.701149
vt 0.032143 0.733292
vt 0.515339 0.733292
vt 0.998535 0.717221
vt 0.998535 0.733292
vt 0.998535 0.701149
vt 0.015339 0.000000
vt 0.030678 0.000000
vt 0.030678 0.483196
vt 0.000000 0.483196
vt 0.000000 0.000000
vt 0.015339 0.966392
vt 0.000000 0.966392
vt 0.030678 0.966392
vn 0.0000 0.0000 0.0000
vn 0.0000 -1.0000 0.0000
vn 0.0000 -0.5000 0.5000
vn -0.0003 -1.0000 -0.0000
vn 1.0000 0.0000 0.0000
vn 0.5000 -0.0000 0.5000
vn 1.0000 -0.0003 -0.0000
vn -0.5000 -0.0000 0.5000
vn -1.0000 -0.0000 -0.0000
vn -0.2000 0.0000 0.4000
vn -0.0000 -0.0000 -1.0000
vn 0.0203 0.0548 -0.9983
vn 0.0000 0.0000 1.0000
s 1
f 1/1/1 2/2/1 3/3/2
f 1/1/1 4/4/3 5/5/1
f 4/4/3 1/1/1 3/3/2
f 3/3/2 6/6/4 4/4/3
f 6/6/4 7/7/2 4/4/3
f 8/8/1 6/6/4 3/3/2
f 9/9/1 10/10/1 11/11/5
f 9/9/1 12/12/6 13/13/1
f 12/12/6 9/9/1 11/11/5
f 11/11/5 14/14/7 12/12/6
f 14/14/7 15/15/5 12/12/6
f 16/16/1 14/14/7 11/11/5
f 17/17/8 18/18/9 19/19/10
f 17/17/8 20/20/9 21/21/9
f 20/20/9 17/17/8 19/19/10
f 19/19/10 22/22/1 20/20/9
f 22/22/1 23/23/1 20/20/9
f 24/24/1 22/22/1 19/19/10
f 25/25/11 26/26/11 27/27/11
f 25/25/11 28/28/11 29/29/12
f 29/29/12 26/26/11 25/25/11
f 26/26/11 29/29/12 30/30/1
f 30/30/1 29/29/12 31/31/11
f 32/32/11 26/26/11 30/30/1
f 33/33/13 34/34/13 35/35/13
f 33/33/13 36/36/13 37/37/13
f 36/36/13 33/33/13 35/35/13
f 35/35/13 38/38/13 36/36/13
f 38/38/13 39/39/13 36/36/13
f 40/40/13 38/38/13 35/35/13